<svg width="55" height="54" fill="none" xmlns="http://www.w3.org/2000/svg"><circle cx="27.84" cy="27" r="27" fill="#61AFF6"/><rect x="10.5" y="9.5" width="36" height="35" rx="3.5" fill="#fff" stroke="#0180C7"/><g clip-path="url(#clip0_701_4021)"><path d="M17.285 39.662c-.137-.062-.236-.132-.076-.272.099-.078.205-.148.312-.218.996-.662 1.932-1.386 2.548-2.453.517-.888.433-1.41-.213-2.064-3.606-3.691-5.188-8.107-4.397-13.324.45-2.944 1.765-5.49 3.682-7.702 1.156-1.34 2.533-2.422 4.039-3.325.09-.055.22-.07.235-.21-.03-.079-.083-.055-.129-.055-2.563 0-5.127-.055-7.682.015-2.45.078-4.564 2.017-4.556 4.797.015 8.123 0 16.245 0 24.375 0 2.523 1.879 4.634 4.335 4.727 2.077.086 4.153.016 6.237.008.152.008.304.016.457.016H33.06c2.738 0 5.476.015 8.214 0 2.54 0 4.602-2.103 4.602-4.696v-4.603c0-.109.038-.225-.03-.342-.137.008-.19.124-.267.202a16.838 16.838 0 01-5.126 3.606c-4.678 2.11-9.44 2.258-14.27.56a2.205 2.205 0 00-1.307-.062 40.75 40.75 0 00-1.902.553c-1.856.592-3.75.857-5.69.467zm5.514-13.121c.13-.172.198-.273.274-.374.996-1.293 1.993-2.586 2.99-3.886.288-.374.577-.756.76-1.207.213-.514-.015-.997-.533-1.184a2.008 2.008 0 00-.715-.086 353.815 353.815 0 00-4.069 0c-.19 0-.38.024-.563.07a.822.822 0 00-.578.997c.076.296.305.53.594.6.182.047.372.07.562.062.822.008 1.65 0 2.472.008.092 0 .206-.062.274.078a8.03 8.03 0 01-.205.272c-1.18 1.527-2.35 3.06-3.53 4.587-.288.382-.44.802-.228 1.27.213.467.647.552 1.088.584.35.023.707.007 1.065.007 1.232 0 2.457.008 3.689-.007.654-.008 1.004-.413.935-1.036-.053-.49-.38-.748-.988-.755-1.073-.008-2.145 0-3.294 0zm8.823-4.097c-.95-.849-2-.903-3.027-.28-1.247.747-1.704 1.97-1.552 3.387.145 1.324.708 2.407 2.062 2.85.844.281 1.627.18 2.32-.396.182-.148.235-.117.365.046a.923.923 0 001.064.304.91.91 0 00.632-.88c.007-1.558.015-3.115 0-4.673-.008-.622-.578-1.02-1.172-.895-.327.07-.51.296-.692.537zm5.271 2.89c-.03 1.946 1.544 3.418 3.522 3.216 1.818-.187 2.997-1.581 2.936-3.551-.061-1.947-1.476-3.279-3.415-3.217-1.818.055-3.104 1.55-3.043 3.551zm-.67-1.55c0-1.223.008-2.438 0-3.66 0-.623-.387-1.013-.965-1.005-.563.008-.936.397-.943.997-.008.366 0 .724 0 1.09v6.191c0 .483.289.903.67 1.005a.972.972 0 001.2-.709.907.907 0 00.031-.288c.015-1.207.008-2.414.008-3.621z" fill="#FDFEFE"/><path d="M22.5 44c-2.076 0-5.349.475-7.425.397-2.457-.101-4.336-2.212-4.336-4.727 0-8.122-.224-17.04-.239-25.17 0-2.78 2.122-4.72 4.564-4.79 2.555-.07 5.552.122 8.115.122 0-.279.798.09.821.168-.015.14-.737.265-.821.32-1.506.902-2.883 1.985-4.039 3.324-1.909 2.212-3.232 4.75-3.681 7.702-.791 5.21.798 9.633 4.396 13.324.639.662.723 1.176.213 2.064-.616 1.067-1.552 1.791-2.548 2.453-.106.063-.213.14-.32.21-.16.14-.06.21.077.273.03.07.068.132.114.195.874.794 1.704 1.643 2.563 2.453.403.381.806.779 1.194 1.176.16.148 1.314.226 1.352.506z" fill="#0180C7"/><path d="M21.395 43.969c-.039-.283-.309-.331-.47-.5-.394-.42-.803-.824-1.211-1.22-.871-.84-1.712-1.719-2.598-2.542a1.037 1.037 0 01-.116-.202c1.966.403 3.886.13 5.775-.476a40.07 40.07 0 011.927-.573 2.13 2.13 0 011.326.064c4.888 1.76 9.715 1.598 14.464-.581a17.047 17.047 0 005.197-3.73c.077-.08.13-.2.27-.209.069.113.03.234.03.355v4.722c.016 2.696-2.05 4.892-4.626 4.916h-.038c-2.776.016-5.551 0-8.327 0h-11.14a4.452 4.452 0 00-.463-.024z" fill="#0172B1"/><path d="M22.799 26.54c1.148 0 2.229-.007 3.3 0 .602.008.929.265.99.756.068.615-.282 1.028-.936 1.036-1.232.015-2.457.008-3.689.008-.357 0-.707.015-1.065-.008-.44-.024-.874-.117-1.087-.584-.213-.468-.061-.888.228-1.27 1.171-1.526 2.35-3.06 3.53-4.587.067-.093.136-.186.204-.272-.076-.133-.182-.07-.273-.078-.822-.008-1.65 0-2.472-.008-.19 0-.38-.023-.563-.062a.82.82 0 01-.601-.981.811.811 0 01.586-.608c.182-.046.372-.07.563-.07 1.353-.008 2.715-.008 4.069 0 .243-.008.479.024.715.086.517.179.737.67.532 1.184-.182.444-.471.825-.76 1.207-.997 1.3-1.993 2.593-2.99 3.878-.083.101-.16.202-.281.374z" fill="#0180C7"/><path d="M31.623 22.444c.182-.241.372-.467.684-.53.601-.124 1.164.273 1.171.896.023 1.558.016 3.115 0 4.673a.919.919 0 01-.63.88.911.911 0 01-1.066-.304c-.129-.163-.182-.195-.365-.047-.692.577-1.475.678-2.32.398-1.353-.452-1.909-1.535-2.06-2.85-.16-1.426.303-2.64 1.55-3.388 1.035-.63 2.085-.576 3.036.272zm-2.693 2.843c.015.343.122.67.32.942a1.237 1.237 0 002 0c.426-.592.426-1.565 0-2.157a1.136 1.136 0 00-.905-.49c-.837-.055-1.422.607-1.415 1.705zm7.964.047c-.061-2.002 1.224-3.497 3.05-3.552 1.94-.062 3.354 1.27 3.415 3.217.06 1.97-1.118 3.364-2.936 3.55-1.985.203-3.56-1.269-3.53-3.215zm1.909-.187c-.015.389.099.77.327 1.09.418.56 1.202.67 1.75.234.083-.063.151-.14.22-.218.44-.592.44-1.59.007-2.181a1.157 1.157 0 00-.905-.49c-.821-.047-1.4.591-1.4 1.565zm-2.579-1.363c0 1.207.008 2.414 0 3.621a1.002 1.002 0 01-.958 1.028c-.091 0-.19-.008-.282-.031-.38-.101-.669-.514-.669-1.005v-6.19c0-.367-.007-.725 0-1.091.008-.6.38-.99.943-.99.578-.007.966.383.966 1.005.008 1.215 0 2.438 0 3.653z" fill="#0180C7"/><path d="M28.93 25.287c-.008-1.098.578-1.76 1.407-1.713.357.015.692.194.905.498.426.584.426 1.565 0 2.157a1.237 1.237 0 01-2 0c-.19-.273-.297-.6-.312-.942zm9.872-.14c0-.966.578-1.612 1.4-1.566.357.008.692.195.905.49.434.593.434 1.597-.008 2.181a1.235 1.235 0 01-1.757.21.99.99 0 01-.212-.225 1.803 1.803 0 01-.328-1.09z" fill="#FDFEFE"/><path d="M15.466 9.292l25.518-.109c2.77 0 5.016 2.38 5.016 5.317l.5 24.5c0 2.936-2.246 5.317-5.016 5.317l-26.019.391c-2.77 0-5.016-2.38-5.016-5.316V14.608c0-2.936 2.246-5.316 5.017-5.316z" stroke="#0180C7" stroke-miterlimit="10"/></g><defs><clipPath id="clip0_701_4021"><path fill="#fff" transform="translate(11 10)" d="M0 0h35v34H0z"/></clipPath></defs></svg>