<svg width="16" height="16" fill="none" xmlns="http://www.w3.org/2000/svg"><g clip-path="url(#clip0_309_1467)"><path d="M15.082 3.422c-.527.24-1.09.403-1.683.478a3.021 3.021 0 001.29-1.675c-.567.347-1.194.6-1.863.734A2.886 2.886 0 0010.686 2c-1.62 0-2.93 1.356-2.93 3.028 0 .238.024.469.075.69-2.437-.124-4.598-1.33-6.042-3.165a3.104 3.104 0 00-.397 1.522c0 1.05.518 1.978 1.305 2.522a2.793 2.793 0 01-1.329-.378v.037c0 1.469 1.011 2.69 2.352 2.969a2.864 2.864 0 01-.772.106c-.187 0-.372-.018-.55-.056.372 1.203 1.455 2.078 2.74 2.103a5.761 5.761 0 01-4.342 1.253A8.026 8.026 0 005.286 14c5.394 0 8.343-4.616 8.343-8.619 0-.131-.003-.262-.01-.39a6.13 6.13 0 001.463-1.57z" fill="#F6AB27"/></g><defs><clipPath id="clip0_309_1467"><path fill="#fff" transform="translate(.188)" d="M0 0h15.5v16H0z"/></clipPath></defs></svg>