<svg width="55" height="54" fill="none" xmlns="http://www.w3.org/2000/svg"><g clip-path="url(#clip0_132_985)"><path d="M54.761 27c0 14.911-12.089 27-27.001 27h-.05C12.82 53.972.76 41.891.76 27S12.82.027 27.71 0h.05c14.912 0 27 12.085 27 27z" fill="#000"/><path d="M27.71 0v54C12.82 53.972.76 41.891.76 27S12.82.027 27.71 0z" fill="#0C0C0C"/><path d="M42.451 19.526l-.033 5.531a13.333 13.333 0 01-3.194-.428 13.508 13.508 0 01-4.477-2.107c0 .566.008 1.41.008 2.436 0 1.365 0 2.14-.008 2.964-.024 5.088.102 6.073-.345 8.085-.093.485-.22.963-.38 1.43-.86 2.396-2.734 4.315-4.643 5.335a9.246 9.246 0 01-1.67.688c-3.609 1.094-7.945.133-10.183-2.528l-.015-.016-.017-.023c-1.902-2.294-2.317-5.87-2.357-6.786 0-.117-.008-.232-.008-.232-.03-1.25.15-2.497.532-3.688.386-1.232 1.657-3.804 4.511-5.367a9.865 9.865 0 015.82-1.113l-.065 5.598c-.113-.03-2.847-.678-4.642 1.185-1.626 1.688-1.521 4.406-.368 5.946.061.082.127.162.195.236.645.72 1.463.99 2.016 1.18.732.24 1.5.353 2.27.332a4.165 4.165 0 002.308-.741c1.877-1.275 2.13-3.545 2.139-3.674l-.066-21.924v-.006l3.517-.063h.057l.51-.01a10.753 10.753 0 001.875 3.727c.272.346.565.675.878.984a11.298 11.298 0 004.165 2.574h.01c.542.198 1.096.356 1.66.475z" fill="#FD2854"/><path d="M40.862 22.029h-.011a12.206 12.206 0 01-5.66-.43 12.052 12.052 0 01-3.542-1.848 35.87 35.87 0 010 11.71c-.76 4.555-1.236 7.411-3.779 9.238a4.669 4.669 0 01-.162.113c-3.511 2.378-8.417 1.198-10.215.079l-.027-.016-.05-.032a11.774 11.774 0 01-1.66-1.331 9.69 9.69 0 01-2.943-6.849 10.38 10.38 0 01.648-3.887c.3-.798 1.412-3.637 4.51-5.366a10.073 10.073 0 016.51-1.102l-.025 1.33v.01l-.052 2.808a8.49 8.49 0 00-2.966-.165c-.798.098-1.58.19-2.412.713a4.84 4.84 0 00-2.1 2.997 4.033 4.033 0 00-.106 1.844c.032.175.266 1.396 1.25 2.271.332.294.473.306.956.757.426.4.532.591.922.923a4.892 4.892 0 00.285.22c.214.156.44.298.674.424.976.51 2.721.565 4.002-.056 1.77-.861 2.737-2.841 2.733-4.017-.022-7.311-.043-14.621-.066-21.93h.123l5.431-.033c-.003.424.055.846.175 1.252l.041.133c.015.048.024.071.036.104.084.221.182.437.291.647l.076.153v.012a.016.016 0 000 .01l.012.026.012.024.024.045.027.052c.05.097.12.225.198.369.05.089.101.178.154.266l.058.094.086.143.107.168c.413.654 1.14 1.754 2.17 2.586 1.448 1.168 3.11 1.498 4.154 1.597.007.327.015.654.021.982.04.988.07 1.975.09 2.962z" fill="#24F6FA"/><path d="M40.879 23.592c-2.742.1-5.434-.752-7.618-2.412v11.71c-.027.448-.42 5.394-4.888 8.116-.22.133-.443.257-.665.372-4.203 2.145-8.311.464-8.717.29a5.447 5.447 0 01-1.48-.752l-.095-.07c-2.742-2.082-2.855-6.321-2.872-6.947-.03-1.25.15-2.497.532-3.688.453-1.444 1.803-3.878 4.511-5.367a9.857 9.857 0 014.874-1.197v.01l-.066 4.219c-.286-.078-2.04-.52-3.754.56a4.84 4.84 0 00-2.1 2.996 4.315 4.315 0 00-.106 1.843c.152.76.51 1.462 1.035 2.03a4.852 4.852 0 00.768.713c.21.162.437.305.675.424l.008.007a4.176 4.176 0 004.481 1.748c.39-.08.768-.209 1.127-.38A4.461 4.461 0 0027.71 37c1.347-1.295 1.544-3.086 1.553-3.194l-.058-21.94.585-.013 3.517-.069h.05l.043.104c.081.196.179.412.292.647l.075.153v.012a.016.016 0 000 .01l.013.026.011.023.024.046a.98.98 0 00.027.052c.061.12.133.243.198.368.05.09.101.179.155.266l.057.095.086.142.107.17a13.075 13.075 0 002.17 2.585 13.106 13.106 0 004.165 2.573h.01c.018.986.035 1.975.051 2.96l.039 1.576z" fill="#fff"/><path opacity=".17" d="M42.451 19.526l-.033 5.531a13.333 13.333 0 01-3.194-.428 13.506 13.506 0 01-4.477-2.107c0 .566.008 1.41.008 2.436 0 1.365 0 2.14-.008 2.964-.024 5.088.102 6.073-.345 8.085-.093.485-.22.963-.38 1.43-.86 2.396-2.734 4.315-4.643 5.335a9.235 9.235 0 01-1.67.688V10.436l5.432-.032c-.004.424.055.846.174 1.252l.041.133.51-.009a10.754 10.754 0 001.875 3.726c.271.346.565.675.878.985 1.448 1.168 3.111 1.498 4.154 1.596l.021.982c.541.192 1.095.344 1.657.457z" fill="#000"/></g><defs><clipPath id="clip0_132_985"><path fill="#fff" transform="translate(.76)" d="M0 0h54v54H0z"/></clipPath></defs></svg>