<svg width="26" height="26" fill="none" xmlns="http://www.w3.org/2000/svg"><g clip-path="url(#clip0_680_1470)" fill="#929191"><path d="M24.352 7.51l-2.284 9.134a1.623 1.623 0 01-1.577 1.231H6.411a1.624 1.624 0 01-1.613-1.436L3.153 3.25h-1.12a1.218 1.218 0 110-2.438h2.182c.61 0 1.125.45 1.208 1.053L6.058 6.5h17.506c.528 0 .916.497.788 1.01zM5.688 21.938a2.44 2.44 0 002.438 2.437 2.44 2.44 0 002.438-2.438A2.44 2.44 0 008.125 19.5a2.44 2.44 0 00-2.438 2.438zm14.626 0a2.44 2.44 0 00-2.438-2.438 2.44 2.44 0 00-2.438 2.438 2.44 2.44 0 002.438 2.437 2.44 2.44 0 002.438-2.438z"/></g><defs><clipPath id="clip0_680_1470"><path fill="#fff" transform="translate(.001)" d="M0 0h26v26H0z"/></clipPath></defs></svg>