<svg width="54" height="54" fill="none" xmlns="http://www.w3.org/2000/svg"><path d="M54 27c0 13.477-9.874 24.647-22.781 26.672V34.805h6.291L38.707 27h-7.488v-5.065c0-2.135 1.046-4.216 4.4-4.216h3.404v-6.645s-3.09-.527-6.044-.527c-6.167 0-10.198 3.738-10.198 10.505V27h-6.855v7.805h6.855v18.867C9.874 51.647 0 40.477 0 27 0 12.089 12.089 0 27 0s27 12.089 27 27z" fill="#1877F2"/><path d="M37.51 34.805L38.707 27h-7.488v-5.065c0-2.135 1.046-4.216 4.4-4.216h3.404v-6.645s-3.09-.527-6.043-.527c-6.168 0-10.199 3.738-10.199 10.505V27h-6.855v7.805h6.855v18.867a27.202 27.202 0 008.438 0V34.805h6.291z" fill="#fff"/></svg>