<svg width="46" height="46" fill="none" xmlns="http://www.w3.org/2000/svg"><g clip-path="url(#clip0_132_1016)"><path d="M44.689 34.316H1.029A1.03 1.03 0 010 33.286v-3.441h46v3.16a1.31 1.31 0 01-1.311 1.31z" fill="#399AEA"/><path d="M44.689 34.316H32.648V16.18h7.63c.398 0 .779.16 1.058.442l4.235 4.287c.275.279.429.654.429 1.045v11.05c0 .724-.587 1.312-1.311 1.312z" fill="#61AFF6"/><path d="M45.57 20.91l-4.234-4.288a1.487 1.487 0 00-1.058-.442h-5.13c.397 0 .778.16 1.057.442l4.235 4.287c.275.279.43.654.43 1.045v12.362h3.819a1.31 1.31 0 001.31-1.311v-11.05c0-.392-.154-.767-.428-1.046z" fill="#399AEA"/><path d="M35.198 25.17v-5.635c0-.34.275-.614.614-.614h3.766c.164 0 .321.066.437.182l3.258 3.299c.113.115.177.27.177.431v2.337a.614.614 0 01-.614.614h-7.024a.614.614 0 01-.614-.614z" fill="#33D8DD"/><path d="M39.02 37.905a4.03 4.03 0 100-8.06 4.03 4.03 0 000 8.06z" fill="#3D6687"/><path d="M39.02 35.432a1.557 1.557 0 100-3.114 1.557 1.557 0 000 3.114z" fill="#CCCBCA"/><path d="M0 31.755h32.648V8.83a.735.735 0 00-.736-.735H.735A.735.735 0 000 8.83v22.925z" fill="#FFC06C"/><path d="M31.913 8.095h-4.395v23.66h5.13V8.83a.735.735 0 00-.735-.735z" fill="#EDA558"/><path d="M8.06 37.905a4.03 4.03 0 100-8.06 4.03 4.03 0 000 8.06z" fill="#3D6687"/><path d="M8.06 35.432a1.557 1.557 0 100-3.114 1.557 1.557 0 000 3.114z" fill="#CCCBCA"/><path d="M19.427 16.55h-6.554a.553.553 0 01-.553-.553V8.095h7.66v7.902a.553.553 0 01-.553.552z" fill="#FF4C4C"/><path d="M21.739 28.706h7.26a.692.692 0 100-1.384h-7.26a.692.692 0 000 1.384zm0-3.999h7.26a.692.692 0 000-1.384h-7.26a.692.692 0 100 1.384z" fill="#000"/></g><defs><clipPath id="clip0_132_1016"><path fill="#fff" d="M0 0h46v46H0z"/></clipPath></defs></svg>