<svg width="55" height="54" fill="none" xmlns="http://www.w3.org/2000/svg"><g clip-path="url(#clip0_132_969)"><path d="M27.92 54c14.913 0 27-12.088 27-27s-12.087-27-27-27c-14.91 0-27 12.088-27 27s12.09 27 27 27z" fill="red"/><path d="M36.756 16.843h-17.67a5.376 5.376 0 00-5.376 5.379v9.556a5.374 5.374 0 005.375 5.379h17.67a5.376 5.376 0 005.376-5.379v-9.556a5.375 5.375 0 00-5.375-5.379zm-12.58 14.512v-8.71L31.665 27l-7.489 4.355z" fill="#fff"/></g><defs><clipPath id="clip0_132_969"><path fill="#fff" transform="translate(.92)" d="M0 0h54v54H0z"/></clipPath></defs></svg>