<svg width="16" height="16" fill="none" xmlns="http://www.w3.org/2000/svg"><path d="M8.083 4.713c-1.913 0-3.499 1.608-3.499 3.612 0 2.003 1.558 3.612 3.5 3.612 1.94 0 3.498-1.637 3.498-3.612 0-1.976-1.585-3.612-3.499-3.612zm0 5.925c-1.23 0-2.242-1.044-2.242-2.313 0-1.27 1.012-2.314 2.242-2.314s2.242 1.044 2.242 2.314-1.012 2.313-2.242 2.313zm3.636-5.192a.806.806 0 00.792-.818.806.806 0 00-.792-.818.806.806 0 00-.793.818c0 .452.355.818.793.818z" fill="#F6AB27"/><path d="M13.77 2.511c-.711-.761-1.723-1.157-2.871-1.157H5.268c-2.379 0-3.964 1.637-3.964 4.092v5.785c0 1.213.382 2.258 1.148 3.02.738.733 1.722 1.1 2.843 1.1h5.577c1.175 0 2.16-.395 2.87-1.1.738-.734 1.12-1.778 1.12-2.992V5.446c0-1.185-.382-2.2-1.093-2.935zm-.11 8.748c0 .875-.3 1.58-.793 2.06-.492.48-1.175.734-1.995.734H5.295c-.82 0-1.504-.254-1.996-.734-.492-.508-.738-1.213-.738-2.088V5.446c0-.846.246-1.552.738-2.06.465-.48 1.176-.733 1.996-.733h5.631c.82 0 1.504.254 1.996.761.464.508.738 1.214.738 2.032v5.813z" fill="#F6AB27"/></svg>