<svg width="46" height="46" fill="none" xmlns="http://www.w3.org/2000/svg"><path d="M32.64 11.698l-9.054-5.227c-1.161-.67-2.613.168-2.613 1.51v1.983a15.36 15.36 0 00-8.724 4.375 15.375 15.375 0 00-4.533 10.943 3.24 3.24 0 006.478 0c0-4.196 2.887-7.73 6.779-8.72v1.872c0 1.341 1.452 2.18 2.613 1.509l9.053-5.227c1.162-.67 1.162-2.347 0-3.018zm-17.9 25.149l9.053 5.227c1.161.671 2.613-.167 2.613-1.508v-1.984a15.36 15.36 0 008.724-4.375 15.372 15.372 0 004.532-10.814c.015-1.795-1.408-3.349-3.203-3.368a3.24 3.24 0 00-3.275 3.239c0 4.195-2.886 7.73-6.778 8.72 0-2.173-2.353-3.532-4.235-2.445l-7.432 4.29c-1.161.672-1.161 2.348 0 3.018z" fill="#00B889"/><path d="M31.26 9.153l-9.053-5.227c-1.161-.671-2.613.167-2.613 1.508v1.984a15.36 15.36 0 00-8.724 4.375 15.375 15.375 0 00-4.533 10.943 3.24 3.24 0 006.478 0c0-4.195 2.887-7.73 6.779-8.72v1.872c0 1.341 1.452 2.18 2.613 1.509l9.054-5.227c1.16-.67 1.16-2.347 0-3.017zm-17.9 25.149l9.054 5.227c1.161.67 2.613-.168 2.613-1.51v-1.983a15.36 15.36 0 008.724-4.375 15.375 15.375 0 004.533-10.943 3.24 3.24 0 00-6.478 0c0 4.196-2.887 7.73-6.78 8.72v-1.872c0-1.341-1.45-2.18-2.612-1.509l-9.054 5.227c-1.161.67-1.161 2.347 0 3.018z" fill="#4FED9A"/></svg>