<svg width="46" height="46" fill="none" xmlns="http://www.w3.org/2000/svg"><path d="M42.291 8.365v12.852c0 11.704-7.948 21.91-19.3 24.783C11.655 43.136 3.707 32.92 3.707 21.217V8.365C12.633 7.36 17.688 3.965 23 0c5.31 3.965 10.366 7.36 19.291 8.365z" fill="#4FED9A"/><path d="M23 40.926a20.661 20.661 0 01-14.416-19.71V12.51C14.588 11.201 18.998 8.783 23 6.023c4.088 2.836 8.413 5.207 14.417 6.497v8.706A20.658 20.658 0 0123 40.926z" fill="#61AFF6"/><path d="M19.803 30.863l-4.751-4.752 2.409-2.419 2.343 2.334 8.735-8.726 2.409 2.409-11.145 11.154z" fill="#FFFCFC"/></svg>