<svg width="90" height="90" fill="none" xmlns="http://www.w3.org/2000/svg"><g clip-path="url(#clip0_322_1707)"><path d="M85.915 18.822a11.587 11.587 0 00-8.448-7.848c-21.562-4.963-43.373-4.963-64.934 0-4.012.923-7.217 3.919-8.448 7.848-5.447 17.392-5.446 34.966 0 52.356a11.587 11.587 0 008.448 7.848c21.562 4.963 43.372 4.963 64.934 0 4.012-.923 7.217-3.919 8.448-7.848 5.447-17.39 5.447-34.964 0-52.356z" fill="url(#paint0_linear_322_1707)"/><path d="M.442 53.6c.6 5.871 1.813 11.735 3.643 17.578 1.23 3.929 4.436 6.925 8.448 7.848 21.561 4.963 43.372 4.963 64.934 0 4.012-.923 7.217-3.919 8.448-7.848 1.83-5.843 3.042-11.707 3.642-17.578H.442z" fill="url(#paint1_linear_322_1707)"/><path d="M77.467 79.026c4.012-.923 7.217-3.919 8.448-7.848.66-2.11 1.24-4.222 1.74-6.337L65.162 42.35a4.702 4.702 0 00-1.399-1.344L39.766 26.307c-3.14-1.97-6.868-.065-6.868 3.642V60.05c0 1.676.481 3.053 1.685 3.88l18.583 18.583a145.392 145.392 0 0024.301-3.488z" fill="url(#paint2_linear_322_1707)"/><path d="M63.764 41.005L39.766 25.954c-3.14-1.97-7.221.288-7.221 3.995v30.102c0 3.707 4.08 5.965 7.221 3.995l23.998-15.05c2.947-1.85 2.947-6.143 0-7.991z" fill="url(#paint3_linear_322_1707)"/></g><defs><linearGradient id="paint0_linear_322_1707" x1="22.182" y1="22.181" x2="69.23" y2="69.23" gradientUnits="userSpaceOnUse"><stop stop-color="#FF637B"/><stop offset="1" stop-color="#F90217"/></linearGradient><linearGradient id="paint1_linear_322_1707" x1="45" y1="63.882" x2="45" y2="82.073" gradientUnits="userSpaceOnUse"><stop stop-color="#F90217" stop-opacity="0"/><stop offset=".267" stop-color="#E7010F" stop-opacity=".267"/><stop offset=".723" stop-color="#CE0004" stop-opacity=".723"/><stop offset="1" stop-color="#C50000"/></linearGradient><linearGradient id="paint2_linear_322_1707" x1="68.685" y1="75.146" x2="51.451" y2="51.053" gradientUnits="userSpaceOnUse"><stop stop-color="#F90217" stop-opacity="0"/><stop offset=".267" stop-color="#E7010F" stop-opacity=".267"/><stop offset=".723" stop-color="#CE0004" stop-opacity=".723"/><stop offset="1" stop-color="#C50000"/></linearGradient><linearGradient id="paint3_linear_322_1707" x1="39.85" y1="43.116" x2="50.263" y2="53.529" gradientUnits="userSpaceOnUse"><stop stop-color="#EBEFF0"/><stop offset="1" stop-color="#E3E5E4"/></linearGradient><clipPath id="clip0_322_1707"><path fill="#fff" d="M0 0h90v90H0z"/></clipPath></defs></svg>